<?xml version="1.0" encoding="utf-8"?>
<!-- Generator: Adobe Illustrator 19.0.0, SVG Export Plug-In . SVG Version: 6.00 Build 0)  -->
<svg version="1.1" id="Réteg_1" xmlns="http://www.w3.org/2000/svg" xmlns:xlink="http://www.w3.org/1999/xlink" x="0px" y="0px"
	 viewBox="0 0 1860 540" style="enable-background:new 0 0 1860 540;" xml:space="preserve">
<style type="text/css">
	.st0{fill:#676767;}
	.st1{fill:#FFFFFF;}
	.st2{fill:#CDCCCC;}
	.st3{fill:#666D7C;}
	.st4{fill:#0084FF;}
	.st5{fill:#1D2129;}
	.st6{fill:#4F504F;}
</style>
<circle id="XMLID_12_" class="st0" cx="175.8" cy="399.5" r="93.8"/>
<g id="XMLID_4_">
	<path id="XMLID_72_" class="st0" d="M389.4,416.1c0,7.7-1.1,13.7-3.4,17.9c-4.2,7.8-12.2,11.7-24.1,11.7c-6.8,0-12.7-1.9-17.5-5.5
		c-4.8-3.7-7.3-10.3-7.3-19.7v-6.5h11.6v6.5c0,5,1.1,8.7,3.3,11.2c2.2,2.5,5.7,3.8,10.3,3.8c6.6,0,10.9-2.3,12.9-6.8
		c1.2-2.8,1.9-8,1.9-15.7v-60.7h12.2V416.1z"/>
	<path id="XMLID_74_" class="st0" d="M451.8,383.5c5.9,5.7,8.8,14.1,8.8,25.1c0,10.7-2.6,19.5-7.8,26.5c-5.2,7-13.2,10.5-24.1,10.5
		c-9.1,0-16.3-3.1-21.6-9.3s-8-14.5-8-24.9c0-11.1,2.8-20,8.4-26.6c5.6-6.6,13.2-9.9,22.7-9.9C438.8,375,445.9,377.8,451.8,383.5z
		 M444.9,427.7c2.7-5.6,4.1-11.8,4.1-18.7c0-6.2-1-11.2-2.9-15.1c-3.1-6.1-8.5-9.2-16.1-9.2c-6.7,0-11.6,2.6-14.7,7.8
		s-4.6,11.5-4.6,18.8c0,7.1,1.5,12.9,4.6,17.6s7.9,7.1,14.6,7.1C437.1,436,442.2,433.2,444.9,427.7z"/>
	<path id="XMLID_77_" class="st0" d="M471.4,351.9h11.2v34c2.6-3.3,5-5.7,7.1-7.1c3.6-2.4,8.1-3.5,13.5-3.5
		c9.6,0,16.2,3.4,19.6,10.1c1.9,3.7,2.8,8.8,2.8,15.3v42.6H514v-41.8c0-4.9-0.6-8.5-1.9-10.7c-2-3.6-5.8-5.5-11.4-5.5
		c-4.6,0-8.8,1.6-12.6,4.8c-3.8,3.2-5.6,9.2-5.6,18v35.2h-11.2V351.9z"/>
	<path id="XMLID_79_" class="st0" d="M539.1,376.9h10.6v9.4c3.1-3.9,6.5-6.7,10-8.4c3.5-1.7,7.4-2.5,11.7-2.5
		c9.4,0,15.8,3.3,19.1,9.9c1.8,3.6,2.7,8.7,2.7,15.4v42.6h-11.3v-41.8c0-4-0.6-7.3-1.8-9.8c-2-4.1-5.6-6.2-10.8-6.2
		c-2.6,0-4.8,0.3-6.5,0.8c-3.1,0.9-5.7,2.7-8.1,5.5c-1.9,2.2-3.1,4.5-3.6,6.8c-0.6,2.3-0.8,5.7-0.8,10v34.8h-11.2V376.9z"/>
	<path id="XMLID_81_" class="st0" d="M641.2,352.2h36.4c12.4,0,21.9,4.4,28.8,13.3c6.1,8,9.1,18.3,9.1,30.8c0,9.7-1.8,18.4-5.4,26.2
		c-6.3,13.8-17.2,20.7-32.6,20.7h-36.3V352.2z M675.1,432.8c4.1,0,7.4-0.4,10.1-1.3c4.7-1.6,8.5-4.7,11.5-9.3
		c2.4-3.7,4.1-8.4,5.2-14.1c0.6-3.4,0.9-6.6,0.9-9.5c0-11.3-2.2-20-6.6-26.3c-4.4-6.2-11.4-9.4-21.2-9.4h-21.4v69.9H675.1z"/>
	<path id="XMLID_84_" class="st0" d="M776,383.5c5.9,5.7,8.8,14.1,8.8,25.1c0,10.7-2.6,19.5-7.8,26.5c-5.2,7-13.2,10.5-24.1,10.5
		c-9.1,0-16.3-3.1-21.6-9.3s-8-14.5-8-24.9c0-11.1,2.8-20,8.4-26.6c5.6-6.6,13.2-9.9,22.7-9.9C762.9,375,770.1,377.8,776,383.5z
		 M769,427.7c2.7-5.6,4.1-11.8,4.1-18.7c0-6.2-1-11.2-2.9-15.1c-3.1-6.1-8.5-9.2-16.1-9.2c-6.7,0-11.6,2.6-14.7,7.8
		s-4.6,11.5-4.6,18.8c0,7.1,1.5,12.9,4.6,17.6s7.9,7.1,14.6,7.1C761.3,436,766.3,433.2,769,427.7z"/>
	<path id="XMLID_87_" class="st0" d="M836.6,378.7c4.4,2.2,7.7,5.1,10,8.6c2.2,3.3,3.7,7.3,4.4,11.7c0.7,3.1,1,7.9,1,14.6h-48.3
		c0.2,6.8,1.8,12.2,4.7,16.3c3,4.1,7.5,6.1,13.7,6.1c5.8,0,10.4-1.9,13.8-5.8c1.9-2.2,3.3-4.8,4.1-7.8h11c-0.3,2.4-1.2,5.2-2.9,8.2
		c-1.6,3-3.5,5.4-5.5,7.3c-3.4,3.3-7.5,5.5-12.5,6.7c-2.7,0.7-5.7,1-9,1c-8.2,0-15.2-3-20.9-9s-8.6-14.4-8.6-25.3
		c0-10.7,2.9-19.3,8.6-26c5.7-6.7,13.3-10,22.5-10C827.6,375.4,832.2,376.5,836.6,378.7z M840.6,404.8c-0.5-4.8-1.5-8.7-3.1-11.6
		c-3-5.4-8.1-8.1-15.2-8.1c-5.1,0-9.3,1.9-12.8,5.5c-3.4,3.7-5.3,8.4-5.5,14.1H840.6z"/>
</g>
<g id="XMLID_5_">
	<path id="XMLID_1_" class="st1" d="M242.2,191.8H110.5c-4,0-7.3-3.3-7.3-7.3V51.4c0-4,3.3-7.3,7.3-7.3h131.6c4,0,7.3,3.3,7.3,7.3
		v133.1C249.4,188.5,246.2,191.8,242.2,191.8z"/>
	<path id="XMLID_2_" class="st2" d="M234.9,193.8h-117c-9.1,0-16.6-7.4-16.6-16.6V58.7c0-9.1,7.4-16.6,16.6-16.6h117
		c9.1,0,16.6,7.4,16.6,16.6v118.5C251.4,186.3,244,193.8,234.9,193.8z M117.8,46.1c-6.9,0-12.6,5.6-12.6,12.6v118.5
		c0,6.9,5.6,12.6,12.6,12.6h117c6.9,0,12.6-5.6,12.6-12.6V58.7c0-6.9-5.6-12.6-12.6-12.6H117.8z"/>
</g>
<rect id="XMLID_6_" x="173.5" y="65.8" transform="matrix(0.7071 0.7071 -0.7071 0.7071 137.8873 -96.9826)" class="st3" width="25.1" height="104.3"/>
<rect id="XMLID_8_" x="135.8" y="110.1" transform="matrix(0.7071 -0.7071 0.7071 0.7071 -52.9061 144.8225)" class="st3" width="25.1" height="52.4"/>
<path id="XMLID_9_" class="st4" d="M930,52.3c-42.1,0-76.2,31.8-76.2,71c0,22.3,11.1,42.3,28.4,55.3v27.1l25.9-14.3
	c6.9,1.9,14.3,3,21.9,3c42.1,0,76.2-31.8,76.2-71S972.1,52.3,930,52.3z M937.6,147.9l-19.4-20.8l-37.9,20.8l41.6-44.5l19.9,20.8
	l37.4-20.8L937.6,147.9z"/>
<g id="XMLID_7_">
	<path id="XMLID_57_" class="st5" d="M342,132.4c0.3,6.2,1.7,11.2,4.2,15.1c4.7,7.2,13.1,10.9,25,10.9c5.3,0,10.2-0.8,14.6-2.4
		c8.5-3.1,12.8-8.6,12.8-16.5c0-6-1.8-10.2-5.4-12.7c-3.7-2.5-9.4-4.6-17.1-6.5l-14.3-3.3c-9.4-2.2-16-4.6-19.9-7.2
		c-6.7-4.6-10.1-11.4-10.1-20.5c0-9.8,3.3-17.9,9.9-24.2c6.6-6.3,16-9.4,28.1-9.4c11.1,0,20.6,2.8,28.4,8.3
		c7.8,5.5,11.7,14.4,11.7,26.5H396c-0.7-5.9-2.2-10.3-4.6-13.5c-4.3-5.7-11.7-8.6-22-8.6c-8.4,0-14.4,1.8-18,5.5
		c-3.7,3.7-5.5,7.9-5.5,12.8c0,5.4,2.2,9.3,6.5,11.8c2.8,1.6,9.2,3.6,19.2,6l14.8,3.5c7.2,1.7,12.7,4,16.6,6.9
		c6.7,5.1,10.1,12.5,10.1,22.2c0,12.1-4.3,20.8-12.9,26c-8.6,5.2-18.6,7.8-29.9,7.8c-13.3,0-23.6-3.5-31.1-10.4
		c-7.5-6.9-11.2-16.2-11-28H342z"/>
	<path id="XMLID_59_" class="st5" d="M477,90.2c5.3,2.7,9.3,6.1,12,10.3c2.7,4,4.4,8.7,5.3,14.1c0.8,3.7,1.2,9.5,1.2,17.6h-57.9
		c0.2,8.1,2.1,14.6,5.7,19.5s9,7.3,16.5,7.3c6.9,0,12.5-2.3,16.6-6.9c2.3-2.7,4-5.8,4.9-9.3h13.2c-0.3,2.9-1.5,6.2-3.5,9.8
		c-2,3.6-4.1,6.5-6.6,8.8c-4,4-9,6.6-15,8c-3.2,0.8-6.8,1.2-10.9,1.2c-9.9,0-18.2-3.6-25.1-10.8c-6.9-7.2-10.3-17.3-10.3-30.3
		c0-12.8,3.4-23.2,10.3-31.2c6.9-8,15.9-12,27.1-12C466.3,86.2,471.7,87.5,477,90.2z M481.8,121.4c-0.5-5.8-1.8-10.4-3.8-13.9
		c-3.6-6.4-9.7-9.7-18.2-9.7c-6.1,0-11.2,2.2-15.3,6.7c-4.1,4.4-6.3,10.1-6.6,16.9H481.8z"/>
	<path id="XMLID_62_" class="st5" d="M508.1,88h12.7v11.3c3.8-4.7,7.8-8,12-10c4.2-2,8.9-3,14.1-3c11.3,0,18.9,3.9,22.9,11.8
		c2.2,4.3,3.3,10.5,3.3,18.5v51.1h-13.6v-50.2c0-4.9-0.7-8.8-2.2-11.8c-2.4-5-6.7-7.4-12.9-7.4c-3.2,0-5.8,0.3-7.8,1
		c-3.7,1.1-6.9,3.3-9.7,6.5c-2.2,2.6-3.7,5.3-4.4,8.1c-0.7,2.8-1,6.8-1,12v41.7h-13.4V88z"/>
	<path id="XMLID_64_" class="st5" d="M632.1,90.4c2.4,1.5,5.1,4.1,8.1,7.8V58h12.9v109.6h-12v-11.1c-3.1,4.9-6.8,8.5-11,10.6
		c-4.2,2.2-9.1,3.3-14.6,3.3c-8.8,0-16.5-3.7-23-11.2c-6.5-7.5-9.7-17.4-9.7-29.8c0-11.6,3-21.7,8.9-30.2
		c5.9-8.5,14.3-12.8,25.3-12.8C623,86.5,628,87.8,632.1,90.4z M602.3,150.1c3.6,5.8,9.4,8.6,17.3,8.6c6.2,0,11.2-2.7,15.2-8
		c4-5.3,6-13,6-22.9c0-10.1-2-17.5-6.1-22.4c-4.1-4.8-9.2-7.3-15.2-7.3c-6.7,0-12.1,2.6-16.3,7.7c-4.2,5.2-6.3,12.7-6.3,22.8
		C596.9,137.3,598.7,144.4,602.3,150.1z"/>
	<path id="XMLID_67_" class="st5" d="M709.3,65.7h13.5V88h12.7v10.9h-12.7v52c0,2.8,0.9,4.6,2.8,5.6c1,0.5,2.8,0.8,5.2,0.8
		c0.6,0,1.3,0,2.1,0c0.7,0,1.6-0.1,2.6-0.2v10.6c-1.5,0.4-3.1,0.8-4.8,1c-1.7,0.2-3.5,0.3-5.4,0.3c-6.2,0-10.5-1.6-12.7-4.8
		c-2.2-3.2-3.3-7.4-3.3-12.5V98.9h-10.8V88h10.8V65.7z"/>
	<path id="XMLID_69_" class="st5" d="M802.2,95.9c7,6.8,10.6,16.9,10.6,30.2c0,12.8-3.1,23.4-9.3,31.8c-6.2,8.4-15.8,12.6-28.9,12.6
		c-10.9,0-19.5-3.7-25.9-11.1c-6.4-7.4-9.6-17.4-9.6-29.8c0-13.4,3.4-24,10.1-32c6.7-7.9,15.8-11.9,27.2-11.9
		C786.5,85.7,795.2,89.1,802.2,95.9z M793.9,148.9c3.3-6.7,4.9-14.2,4.9-22.4c0-7.4-1.2-13.5-3.5-18.1c-3.7-7.3-10.1-11-19.3-11
		c-8.1,0-14,3.1-17.7,9.4c-3.7,6.2-5.5,13.8-5.5,22.6c0,8.5,1.8,15.5,5.5,21.2s9.5,8.5,17.5,8.5
		C784.6,158.9,790.6,155.6,793.9,148.9z"/>
</g>
<g id="XMLID_13_">
	<path id="XMLID_33_" class="st5" d="M1060.5,58.4h21.2l31.4,92.4l31.2-92.4h21.1v109.3h-14.1v-64.5c0-2.2,0-5.9,0.1-11.1
		c0.1-5.2,0.1-10.7,0.1-16.6l-31.2,92.2h-14.7l-31.5-92.2v3.3c0,2.7,0.1,6.8,0.2,12.2c0.1,5.5,0.2,9.5,0.2,12.1v64.5h-14.1V58.4z"/>
	<path id="XMLID_37_" class="st5" d="M1230,90.2c5.3,2.7,9.3,6.1,12,10.3c2.7,4,4.4,8.7,5.3,14.1c0.8,3.7,1.2,9.5,1.2,17.6h-57.9
		c0.2,8.1,2.1,14.6,5.7,19.5s9,7.3,16.5,7.3c6.9,0,12.5-2.3,16.6-6.9c2.3-2.7,4-5.8,4.9-9.3h13.2c-0.3,2.9-1.5,6.2-3.5,9.8
		c-2,3.6-4.1,6.5-6.6,8.8c-4,4-9,6.6-15,8c-3.2,0.8-6.8,1.2-10.9,1.2c-9.9,0-18.2-3.6-25.1-10.8c-6.8-7.2-10.3-17.3-10.3-30.3
		c0-12.8,3.4-23.2,10.3-31.2c6.9-8,15.9-12,27.1-12C1219.3,86.2,1224.7,87.5,1230,90.2z M1234.8,121.4c-0.5-5.8-1.8-10.4-3.8-13.9
		c-3.6-6.4-9.7-9.7-18.2-9.7c-6.1,0-11.2,2.2-15.3,6.7c-4.1,4.4-6.3,10.1-6.6,16.9H1234.8z"/>
	<path id="XMLID_40_" class="st5" d="M1268.3,142.6c0.4,4.5,1.5,7.9,3.4,10.3c3.4,4.3,9.4,6.5,17.9,6.5c5.1,0,9.5-1.1,13.4-3.2
		c3.8-2.2,5.8-5.5,5.8-10c0-3.4-1.5-6-4.6-7.8c-2-1.1-5.8-2.4-11.6-3.8l-10.8-2.7c-6.9-1.7-12-3.6-15.3-5.7c-5.8-3.6-8.8-8.6-8.8-15
		c0-7.5,2.8-13.6,8.3-18.3c5.5-4.7,12.9-7,22.2-7c12.2,0,20.9,3.5,26.3,10.6c3.4,4.5,5,9.3,4.9,14.4h-12.6c-0.3-3-1.3-5.7-3.3-8.2
		c-3.1-3.5-8.6-5.3-16.4-5.3c-5.2,0-9.1,1-11.8,2.9c-2.7,1.9-4,4.5-4,7.6c0,3.5,1.8,6.2,5.3,8.3c2,1.2,5,2.3,8.9,3.3l9,2.2
		c9.8,2.3,16.4,4.6,19.7,6.8c5.2,3.4,7.8,8.8,7.8,16.1c0,7.1-2.7,13.2-8.2,18.4s-13.7,7.7-24.9,7.7c-12,0-20.5-2.7-25.5-8.1
		c-5-5.4-7.7-12-8-20H1268.3z"/>
	<path id="XMLID_42_" class="st5" d="M1339.3,142.6c0.4,4.5,1.5,7.9,3.4,10.3c3.4,4.3,9.4,6.5,17.9,6.5c5.1,0,9.5-1.1,13.4-3.2
		c3.8-2.2,5.8-5.5,5.8-10c0-3.4-1.5-6-4.6-7.8c-2-1.1-5.8-2.4-11.6-3.8l-10.8-2.7c-6.9-1.7-12-3.6-15.3-5.7c-5.8-3.6-8.8-8.6-8.8-15
		c0-7.5,2.8-13.6,8.3-18.3c5.5-4.7,12.9-7,22.2-7c12.2,0,20.9,3.5,26.3,10.6c3.4,4.5,5,9.3,4.9,14.4h-12.6c-0.3-3-1.3-5.7-3.3-8.2
		c-3.1-3.5-8.6-5.3-16.4-5.3c-5.2,0-9.1,1-11.8,2.9c-2.7,1.9-4,4.5-4,7.6c0,3.5,1.8,6.2,5.3,8.3c2,1.2,5,2.3,8.9,3.3l9,2.2
		c9.8,2.3,16.4,4.6,19.7,6.8c5.2,3.4,7.8,8.8,7.8,16.1c0,7.1-2.7,13.2-8.2,18.4s-13.7,7.7-24.9,7.7c-12,0-20.5-2.7-25.5-8.1
		c-5-5.4-7.7-12-8-20H1339.3z"/>
	<path id="XMLID_44_" class="st5" d="M1451.5,90.2c5.3,2.7,9.3,6.1,12,10.3c2.7,4,4.4,8.7,5.3,14.1c0.8,3.7,1.2,9.5,1.2,17.6h-57.9
		c0.2,8.1,2.1,14.6,5.7,19.5s9,7.3,16.5,7.3c6.9,0,12.5-2.3,16.6-6.9c2.3-2.7,4-5.8,4.9-9.3h13.2c-0.3,2.9-1.5,6.2-3.5,9.8
		c-2,3.6-4.1,6.5-6.6,8.8c-4,4-9,6.6-15,8c-3.2,0.8-6.8,1.2-10.9,1.2c-9.9,0-18.2-3.6-25.1-10.8c-6.8-7.2-10.3-17.3-10.3-30.3
		c0-12.8,3.4-23.2,10.3-31.2c6.9-8,15.9-12,27.1-12C1440.8,86.2,1446.2,87.5,1451.5,90.2z M1456.3,121.4c-0.5-5.8-1.8-10.4-3.8-13.9
		c-3.6-6.4-9.7-9.7-18.2-9.7c-6.1,0-11.2,2.2-15.3,6.7c-4.1,4.4-6.3,10.1-6.6,16.9H1456.3z"/>
	<path id="XMLID_47_" class="st5" d="M1481.8,88h12.7v11.3c3.8-4.7,7.8-8,12-10c4.2-2,8.9-3,14.1-3c11.3,0,18.9,3.9,22.9,11.8
		c2.2,4.3,3.3,10.5,3.3,18.5v51.1h-13.6v-50.2c0-4.9-0.7-8.8-2.2-11.8c-2.4-5-6.7-7.4-12.9-7.4c-3.2,0-5.8,0.3-7.8,1
		c-3.7,1.1-6.9,3.3-9.7,6.5c-2.2,2.6-3.7,5.3-4.4,8.1c-0.7,2.8-1,6.8-1,12v41.7h-13.4V88z"/>
	<path id="XMLID_49_" class="st5" d="M1605.7,91.2c2.5,1.7,5.1,4.3,7.7,7.6v-10h12.3v72.4c0,10.1-1.5,18.1-4.4,24
		c-5.5,10.8-16,16.2-31.4,16.2c-8.6,0-15.7-1.9-21.6-5.8c-5.8-3.8-9.1-9.9-9.8-18h13.6c0.6,3.6,1.9,6.3,3.8,8.3
		c3,3,7.7,4.5,14.2,4.5c10.2,0,16.9-3.6,20-10.9c1.9-4.3,2.7-11.9,2.6-22.8c-2.7,4.1-5.9,7.1-9.6,9.1c-3.8,2-8.7,3-14.9,3
		c-8.6,0-16.1-3.1-22.6-9.2c-6.4-6.1-9.7-16.3-9.7-30.4c0-13.3,3.2-23.8,9.7-31.2c6.5-7.5,14.3-11.2,23.5-11.2
		C1595.6,86.5,1601,88.1,1605.7,91.2z M1607.3,105.5c-4-4.8-9.2-7.1-15.5-7.1c-9.4,0-15.8,4.4-19.2,13.2c-1.8,4.7-2.7,10.9-2.7,18.5
		c0,9,1.8,15.8,5.4,20.5c3.6,4.7,8.5,7,14.6,7c9.6,0,16.3-4.3,20.2-13c2.2-4.9,3.3-10.6,3.3-17.2
		C1613.4,117.6,1611.3,110.3,1607.3,105.5z"/>
	<path id="XMLID_52_" class="st5" d="M1690.1,90.2c5.3,2.7,9.3,6.1,12,10.3c2.7,4,4.4,8.7,5.3,14.1c0.8,3.7,1.2,9.5,1.2,17.6h-57.9
		c0.2,8.1,2.1,14.6,5.7,19.5s9,7.3,16.5,7.3c6.9,0,12.5-2.3,16.6-6.9c2.3-2.7,4-5.8,4.9-9.3h13.2c-0.3,2.9-1.5,6.2-3.5,9.8
		c-2,3.6-4.1,6.5-6.6,8.8c-4,4-9,6.6-15,8c-3.2,0.8-6.8,1.2-10.9,1.2c-9.9,0-18.2-3.6-25.1-10.8c-6.8-7.2-10.3-17.3-10.3-30.3
		c0-12.8,3.4-23.2,10.3-31.2c6.9-8,15.9-12,27.1-12C1679.4,86.2,1684.8,87.5,1690.1,90.2z M1694.9,121.4c-0.5-5.8-1.8-10.4-3.8-13.9
		c-3.6-6.4-9.7-9.7-18.2-9.7c-6.1,0-11.2,2.2-15.3,6.7c-4.1,4.4-6.3,10.1-6.6,16.9H1694.9z"/>
	<path id="XMLID_55_" class="st5" d="M1720.8,88h12.7v13.8c1-2.7,3.6-5.9,7.7-9.8c4.1-3.8,8.8-5.8,14.1-5.8c0.2,0,0.7,0,1.3,0.1
		c0.6,0,1.6,0.1,3,0.3v14.1c-0.8-0.1-1.5-0.2-2.2-0.3c-0.7,0-1.4-0.1-2.2-0.1c-6.7,0-11.9,2.2-15.5,6.5c-3.6,4.3-5.4,9.3-5.4,15
		v45.8h-13.4V88z"/>
</g>
<g id="gJMS9C.tif">
	<g id="XMLID_34_">
		<path id="XMLID_35_" class="st6" d="M234.9,458.1c-6.2-3.4-12.9-5.8-19.4-8.5c-3.5-1.5-7-3-10.2-4.9c-2.3-1.3-4.4-3.1-6.3-5
			c-2-1.9-3-4.4-3-7.3c0.1-4.3-0.1-8.7-0.1-13c0-0.7,0.2-1.5,0.6-2c4.8-5.1,7-11.3,8.4-17.9c0.3-1.2,0.4-2.2,1.9-2.5
			c0.4-0.1,0.8-0.4,1.2-0.7c4.8-3.6,5.9-14,2.1-18.6c-0.4-0.5-0.4-1.5-0.2-2.1c2.3-8.2,4-16.5,3.6-25c-0.2-3.3-0.7-6.8-1.6-10
			c-2.2-8.1-7.6-13-15.9-14.8c-0.9-0.2-1.8-0.8-2.4-1.5c-2.4-2.8-5.4-4.3-8.9-5c-10.2-2.1-20.1-1.3-29.5,3.2
			c-10,4.8-14.7,13.4-16,24c-1.3,9.7,0.2,19.2,2.5,28.5c0.3,1.3,0.5,2.3-0.8,3.2c-0.3,0.2-0.5,0.6-0.7,1c-3.2,5.2-0.3,15.3,5.2,18.1
			c0.6,0.3,1,1.2,1.1,1.9c1.2,5.9,3.2,11.6,7.1,16.2c1.9,2.3,2.4,4.4,2.3,7.1c-0.1,3.3-0.2,6.6-0.2,9.9c0,3.8-1.7,6.7-4.5,8.9
			c-2.9,2.2-6,4.1-9.2,5.8c-3.1,1.6-6.4,2.8-9.7,4.1c-5.3,2.1-10.6,4.2-15.6,6.9c15.7,14,36.4,22.5,59.1,22.5
			C198.5,480.6,219.2,472.1,234.9,458.1z"/>
	</g>
</g>
</svg>
